PathFileType	4	(X/Y/Z)	OpenSim_Sub10_CSBaseline_Gyro.trc
DataRate	CameraRate	NumFrames	NumMarkers	Units	OrigDataRate	OrigDataStartFrame	OrigNumFrames
100	100	34	8	m	100	7973	9111
Frame#	Time	torso_imu_offset_imu	pelvis_imu_offset_imu	tibia_r_imu_offset_imu	femur_r_imu_offset_imu	tibia_l_imu_offset_imu	femur_l_imu_offset_imu	toes_r_imu_offset_imu	toes_l_imu_offset_imu
				X1	Y1	Z1	X2	Y2	Z2	X3	Y3	Z3	X4	Y4	Z4	X5	Y5	Z5	X6	Y6	Z6	X7	Y7	Z7	X8		Y8	Z8	

7973	79.72000000	0.05383668	0.02506556	-0.06743800	-0.08553083	0.01636309	-0.01201997	-1.03615744	-0.03002918	5.00641676	0.06172170	-0.09613814	-0.17034548	-0.14997506	-0.15557063	0.47225370	-0.24216276	-0.48067278	1.25636982	-1.05191277	4.46631602	1.74574304	-0.04611237	-0.00919824	0.15372639
7974	79.73000000	0.08125987	0.01465647	-0.06385789	-0.08998580	0.03458768	-0.00992691	-0.82643161	-0.28132772	4.77749901	-0.08737605	-0.04949079	-0.24707896	-0.17567018	-0.15399870	0.54127620	-0.23108498	-0.51347587	1.27286670	-0.95212782	4.44052797	1.94319154	-0.03544161	-0.01041925	0.15245129
7975	79.74000000	0.13402565	-0.02718121	-0.04286145	-0.10364485	0.05812313	-0.00914490	-0.44754654	-0.35427918	4.44861556	-0.16148035	-0.00513108	-0.29592686	-0.21217182	-0.14867373	0.59833214	-0.21992625	-0.51389260	1.28770278	-0.86286059	4.24030101	1.99390643	-0.02665603	-0.01389416	0.14024456
7976	79.75000000	0.15873903	-0.06956279	-0.05267457	-0.12800320	0.06183114	-0.00450077	-0.12880004	-0.16514236	4.12064225	-0.17220612	-0.02103311	-0.31783568	-0.21315892	-0.10463105	0.64262327	-0.23301853	-0.47530121	1.21763872	-0.64358177	3.96066730	1.88655082	-0.03029714	-0.00019626	0.13435765
7977	79.76000000	0.10350491	-0.04836292	-0.06284934	-0.13754568	0.06869454	-0.00838308	-0.05979165	0.11415298	3.83150731	-0.18681179	-0.12602814	-0.31034018	-0.21134523	-0.09297460	0.71379246	-0.29171975	-0.45126699	1.16569770	-0.31132133	3.62813572	1.64813131	-0.01345803	-0.02536500	0.13765873
7978	79.77000000	0.06529392	-0.05551852	-0.04772060	-0.12502620	0.07430837	-0.01792056	-0.02352333	0.32302448	3.60439247	-0.22255346	-0.25456726	-0.27848647	-0.20857427	-0.07777626	0.80961992	-0.33992847	-0.46021347	1.08126722	0.07876746	3.29858786	1.37333037	-0.01293828	-0.05247381	0.13870527
7979	79.78000000	0.04099644	-0.10028476	-0.04497716	-0.08348456	0.08707596	-0.02730867	0.10487448	0.34850389	3.37761859	-0.25365780	-0.32252574	-0.25997659	-0.21413001	-0.02277428	0.89480311	-0.33337248	-0.46042977	1.00864825	0.30874692	2.93142028	1.11339716	0.00009769	-0.07759465	0.13716790
7980	79.79000000	0.01946329	-0.14561566	-0.04445768	-0.03119481	0.08871258	-0.02977515	0.32470330	0.25663260	3.03933203	-0.26328088	-0.33348647	-0.26899448	-0.19237660	-0.01294019	0.95114755	-0.27800104	-0.42198268	0.93698746	0.43391323	2.52159173	0.88854803	0.02378321	-0.11217691	0.13652878
7981	79.80000000	0.01945329	-0.17587245	-0.04691857	0.00719454	0.07415137	-0.03332732	0.50093547	0.15885742	2.58997265	-0.27243412	-0.33939955	-0.29656523	-0.12097819	-0.00759965	0.98679889	-0.20905120	-0.36294931	0.79512137	0.45688884	2.04564831	0.70857746	0.04208953	-0.16765917	0.12343181
7982	79.81000000	0.02960521	-0.21034218	-0.03572780	0.02813547	0.03579029	-0.03407144	0.64076878	0.09003010	2.14848076	-0.29621818	-0.35709294	-0.26388706	-0.06881560	-0.01227830	1.06079069	-0.10121138	-0.30535520	0.66146566	0.30354238	1.56166776	0.63458062	0.05559212	-0.24089145	0.12168941
7983	79.82000000	0.04196912	-0.23528778	-0.01889973	0.03236104	-0.01334966	-0.02973392	0.73363698	0.04423032	1.76950541	-0.33707371	-0.37976980	-0.16303855	-0.01454902	-0.00980419	1.12424194	0.02978142	-0.27067952	0.55844752	-0.01903161	1.14413903	0.67465288	0.08432874	-0.31622248	0.12124279
7984	79.83000000	0.08803574	-0.22721722	0.00035429	0.03202434	-0.06957906	-0.02360652	0.80429294	-0.03151640	1.36696715	-0.42585584	-0.37302403	-0.05889621	0.05391260	-0.02206248	1.15216834	0.09405659	-0.22811186	0.45871170	-0.35727402	0.79553182	0.78791786	0.12160749	-0.39866840	0.10091474
7985	79.84000000	0.09961677	-0.19513455	0.02671284	0.03487725	-0.09785378	-0.00499078	0.86109365	-0.15382093	0.88482681	-0.52841021	-0.33015200	0.02293154	0.13380905	-0.01314976	1.18856564	0.17359146	-0.19654697	0.43819055	-0.36480915	0.49128283	0.86562336	0.17092097	-0.47718573	0.09777103
7986	79.85000000	0.10321508	-0.15878471	0.02411496	0.04957226	-0.09834712	0.00702957	0.76566110	-0.27803027	0.36465945	-0.57341646	-0.26467146	0.07451777	0.18843038	-0.00863206	1.24622019	0.27389472	-0.17095138	0.42089369	-0.15203068	0.18814021	0.88150701	0.18991508	-0.55671664	0.10025263
7987	79.86000000	0.09721952	-0.14249848	0.03119400	0.08093623	-0.10140498	0.02293204	0.52743417	-0.32652990	-0.06194596	-0.57104195	-0.23010005	0.11270532	0.27667448	0.01911831	1.31267960	0.34855105	-0.14231539	0.43927159	0.03185409	-0.14861238	0.81968407	0.28954074	-0.63835455	0.12456100
7988	79.87000000	0.08443951	-0.12121243	0.02618088	0.13840939	-0.09664080	0.04184237	0.31450121	-0.33057957	-0.39607325	-0.53986000	-0.24717854	0.12601351	0.35562934	0.04652438	1.38907733	0.40935387	-0.11466921	0.43964867	0.16432897	-0.49455438	0.64785184	0.18331237	-0.76445463	0.18998072
7989	79.88000000	0.10571055	-0.06258471	0.00750958	0.21134023	-0.06957439	0.06592973	0.20847287	-0.35921340	-0.70705839	-0.49583121	-0.29725989	0.12284894	0.43805848	0.05646206	1.45661290	0.45286800	-0.06858303	0.32899625	0.17557486	-0.75026439	0.40105950	0.10871517	-0.85119043	0.21404238
7990	79.89000000	0.13847963	0.02667373	0.01248045	0.29979961	-0.03494214	0.08842554	0.17318594	-0.40515758	-0.99243776	-0.43577076	-0.36874268	0.09605151	0.50743019	0.07116897	1.53322263	0.50809203	-0.04371026	0.30558260	-0.07547317	-0.96474747	0.09810516	0.24851612	-0.96278541	0.19906456
7991	79.90000000	0.16629524	0.11391922	0.00874616	0.39061774	-0.00367345	0.11441958	0.22627904	-0.44216006	-1.24102315	-0.32273202	-0.47202141	0.03102595	0.55811122	0.07466151	1.62825035	0.53553523	-0.02848152	0.24006569	1.43853761	-1.60940361	-0.20579259	0.23538606	-1.08886470	0.14960547
7992	79.91000000	0.21039665	0.19099606	-0.00914185	0.46515864	0.03151693	0.14687088	0.32759058	-0.47843636	-1.42555477	-0.13206996	-0.57203601	-0.07266761	0.53488431	0.08517666	1.70578495	0.54241590	-0.00168868	0.14883823	3.73344838	-2.33230675	-0.01463048	0.34238666	-1.24047296	0.09601430
7993	79.92000000	0.26345564	0.25662314	-0.00856792	0.50211117	0.09478463	0.18836738	0.45826249	-0.58843287	-1.47386508	0.12188968	-0.65228106	-0.25326479	0.51189744	0.10236472	1.76130486	0.56752917	0.06777917	0.04642340	0.17007217	-2.65985728	0.29424306	0.42594767	-1.39899330	0.03003602
7994	79.93000000	0.33646144	0.30028667	-0.00978195	0.47927077	0.14684270	0.21613161	0.41132253	-0.80197021	-1.36775392	0.35446252	-0.71053617	-0.51467137	0.46982685	0.06732791	1.81010024	0.57566986	0.15216266	0.00263251	1.47720695	-3.14935897	0.09415954	0.46680905	-1.58259354	-0.05542970
7995	79.94000000	0.39398019	0.30612364	0.01811328	0.37199703	0.13804522	0.23393149	-0.24318766	-1.01890449	-1.03688370	0.50597391	-0.72450649	-0.82280212	0.38250306	0.03327122	1.86369413	0.56294139	0.25216090	-0.03296065	0.35106209	-3.21752105	-0.24957255	0.45260618	-1.80937922	-0.10508001
7996	79.95000000	0.41458190	0.25254222	0.06587808	0.17997270	0.08737944	0.23926606	-1.07439877	-0.95960188	-0.45910192	0.56418773	-0.63215415	-1.10348458	0.28912941	0.03046656	1.93105553	0.54470429	0.34011806	-0.04521642	0.07795780	-2.99891405	-0.69469602	0.52134739	-2.06576828	-0.13319333
7997	79.96000000	0.39163220	0.19396092	0.07757706	-0.01992120	0.02279869	0.23799070	-0.87707872	-0.65076646	-0.24105063	0.50284622	-0.46702278	-1.24529247	0.23881341	-0.03368549	2.01233342	0.54793797	0.39665159	-0.05582786	-0.25403087	-2.73775804	-0.70413092	0.41230538	-2.34649711	-0.15532016
7998	79.97000000	0.36267814	0.17263429	0.06593347	-0.15885617	-0.05256973	0.23680452	0.58247806	-0.20897970	-0.95608937	0.33642642	-0.30691506	-1.16953051	0.15478661	-0.07571572	2.07890919	0.53404989	0.44343599	-0.11092213	0.05826804	-2.44475482	-0.31181486	0.37460100	-2.60498584	-0.18144099
7999	79.98000000	0.29649109	0.17746050	0.08169396	-0.25516249	-0.15896726	0.22850344	2.07436047	-0.01585160	-1.77343300	0.15385210	-0.17285147	-0.89251649	0.09705635	-0.10347823	2.15733400	0.47323887	0.46986293	-0.21110134	1.03963355	-1.66336257	0.00525622	0.33840118	-2.96541816	-0.17694221
8000	79.99000000	0.17540775	0.21123177	0.07976749	-0.27968824	-0.28392456	0.21083700	2.60119270	-0.04097887	-1.96792341	0.05891603	-0.15016183	-0.48684722	0.16302199	-0.16525500	2.28096926	0.37734527	0.48084438	-0.33579377	2.06579761	-0.43317189	0.02391458	0.40588842	-3.27518361	-0.18187167
8001	80	0.13452215	0.18762396	0.05595663	-0.24732175	-0.39438739	0.18811161	2.65123622	0.03063732	-1.86113086	0.22701282	-0.17768669	-0.03899388	0.30486712	-0.20854739	2.40444171	0.26258195	0.50014509	-0.47695346	0.19070371	-0.57659040	-0.05001323	0.43150579	-3.66516242	-0.19553495
8002	80.01000000	0.11677746	0.16387559	0.01217185	-0.15441894	-0.44237869	0.12715322	2.60870248	0.07441502	-1.87289424	0.65578761	-0.08523769	0.32610497	0.48041997	-0.25083089	2.46515486	0.14799276	0.54211344	-0.61882445	0.58525407	-0.22536704	0.14122404	0.57549108	-4.02791984	-0.18946938
8003	80.02000000	0.09765324	0.15723679	-0.03201416	-0.01031196	-0.38653731	0.05745676	2.33044616	-0.12503376	-1.91780998	1.04912769	0.14473577	0.48313230	0.62095339	-0.28205201	2.50051595	0.01956241	0.60552936	-0.77520075	0.31085329	-0.08633900	0.03584441	0.72405272	-4.39144665	-0.09035614
8004	80.03000000	0.12527233	0.12492619	-0.07622360	0.15388067	-0.23235834	0.00107124	1.90474480	-0.31511179	-1.65840368	1.30380923	0.37815553	0.40333635	0.71430559	-0.25314656	2.59974969	-0.05550217	0.67951696	-0.90875268	0.12989625	0.03726649	-0.00737242	0.19406307	-4.64375460	0.01504757
8005	80.04000000	0.14565933	0.14337952	-0.12433359	0.26373006	-0.06068166	-0.03504369	1.53959751	-0.21278237	-1.21320613	1.30863503	0.40893510	0.06384026	0.73759434	-0.25012622	2.74138516	-0.11995229	0.78957573	-1.05562115	0.33567949	0.09862589	-0.05127970	0.71272523	-4.96795436	0.06803047
8006	80.05000000	0.17294699	0.16538039	-0.15244528	0.32579736	0.08112361	-0.04860193	1.18845612	-0.20085400	-0.98374798	0.94173574	0.15300527	-0.49580142	0.67957764	-0.30032238	2.84722782	-0.14339537	0.95656360	-1.20183194	0.30790677	0.16999667	-0.08283148	0.42457911	-5.23654798	0.14315305
